<svg width="18" height="18" viewBox="0 0 18 18" fill="none" xmlns="http://www.w3.org/2000/svg">
<g clip-path="url(#clip0_29_14)">
<path d="M2.75 2.25H10.75C10.8826 2.25 11.0098 2.30268 11.1036 2.39645C11.1973 2.49021 11.25 2.61739 11.25 2.75V10.75C11.25 10.8826 11.1973 11.0098 11.1036 11.1036C11.0098 11.1973 10.8826 11.25 10.75 11.25H2.75C2.61739 11.25 2.49021 11.1973 2.39645 11.1036C2.30268 11.0098 2.25 10.8826 2.25 10.75V2.75C2.25 2.61739 2.30268 2.49021 2.39645 2.39645C2.49021 2.30268 2.61739 2.25 2.75 2.25V2.25ZM3.25 3.25V10.25H10.25V3.25H3.25Z" fill="white"/>
</g>
<defs>
<clipPath id="clip0_29_14">
<rect width="18" height="18" fill="white"/>
</clipPath>
</defs>
</svg>
